<svg viewBox="0 0 39 40" fill="none" xmlns="http://www.w3.org/2000/svg">
<path d="M38.6045 1.86635C38.8147 1.17151 38.4754 0.4289 37.8077 0.129251C37.1422 -0.170399 36.3542 0.0662809 35.9667 0.680779C27.5366 14.0673 17.7055 16.8445 7.29655 19.7845C6.13853 20.1124 4.93893 20.4511 3.74808 20.8029C3.34748 20.9223 3.01693 21.2046 2.83962 21.5802C2.6623 21.9559 2.65792 22.3902 2.82648 22.7702C4.79226 27.2388 4.18151 32.1679 0.95921 37.8395C0.705279 38.289 0.709657 38.8383 0.970155 39.2813C1.23284 39.7264 1.71225 40 2.23106 40C13.7039 37.1924 25.3673 37.2771 37.2057 40C37.7092 40 38.1777 39.7416 38.4447 39.3182C38.7118 38.8948 38.7381 38.3628 38.517 37.9133C33.9287 28.6242 33.9572 17.168 38.6045 1.86418V1.86635Z" fill="url(#paint0_linear_1023_61849)"/>
<defs>
<linearGradient id="paint0_linear_1023_61849" x1="-1.14039" y1="20" x2="40.5786" y2="20" gradientUnits="userSpaceOnUse">
<stop stop-color="#FFD400"/>
<stop offset="1" stop-color="#FF5E31"/>
</linearGradient>
</defs>
</svg>
