<?xml version="1.0" encoding="UTF-8"?>
<svg id="Layer_1" data-name="Layer 1" xmlns="http://www.w3.org/2000/svg" xmlns:xlink="http://www.w3.org/1999/xlink" viewBox="0 0 169.32 146.52">
  <defs>
    <style>
      .cls-1 {
        fill: url(#linear-gradient-3);
      }

      .cls-2 {
        fill: url(#linear-gradient-2);
      }

      .cls-3 {
        fill: url(#linear-gradient);
      }
    </style>
    <linearGradient id="linear-gradient" x1="0" y1="74.37" x2="244.03" y2="74.37" gradientUnits="userSpaceOnUse">
      <stop offset=".02" stop-color="#002c62"/>
      <stop offset=".69" stop-color="#0046ab"/>
    </linearGradient>
    <linearGradient id="linear-gradient-2" x1="87.88" y1="73.26" x2="192.1" y2="73.26" gradientUnits="userSpaceOnUse">
      <stop offset=".02" stop-color="#ff5e31"/>
      <stop offset=".31" stop-color="#ff7c24"/>
      <stop offset=".92" stop-color="#ffc904"/>
      <stop offset="1" stop-color="#ffd400"/>
    </linearGradient>
    <linearGradient id="linear-gradient-3" x1="72.44" y1="72.3" x2="154.92" y2="72.3" gradientUnits="userSpaceOnUse">
      <stop offset=".16" stop-color="#ffb000"/>
      <stop offset="1" stop-color="#fcee93"/>
    </linearGradient>
  </defs>
  <path class="cls-3" d="M76.45,78.48c-1.49-.2-2.78-1.1-3.48-2.43-.7-1.33-.7-2.91-.02-4.24,6.39-12.42,11.37-24.57,14.93-36.34-8.71-6.64-16.86-15.38-27.88-28.83-1.01-1.23-2.6-1.81-4.16-1.52h0c-1.56.3-2.84,1.43-3.33,2.95C39.76,47.27,32.55,56.11,1.45,83.8c-1.65,1.47-2.01,4.04-.49,6,.48.61,1.15,1.05,1.87,1.32l1.32.48c37.67,13.79,49.04,17.95,74.42,50.43,1.01,1.29,2.65,1.9,4.25,1.59l.14-.03c1.56-.37,2.8-1.56,3.23-3.1,3.72-13.4,7.1-23.2,11.12-31.35l-3.97-28.42-16.89-2.22Z"/>
  <path class="cls-2" d="M168.79,55.24c-.85-1.91-2.6-3.21-4.68-3.48l-26.11-3.43,18.15-34.09c.71-1.33.72-2.92.04-4.25-.68-1.34-1.98-2.26-3.47-2.47L99.28.04c-1.26-.17-2.52.17-3.51.96-.99.79-1.61,1.95-1.71,3.21-.85,10.06-2.92,20.51-6.17,31.25,11.95,9.11,24.95,14.26,47.83,22.13,2.12.73,3.45,3.02,2.74,5.44-.22.76-.71,1.44-1.31,1.96-21.2,18.27-31.82,27.93-39.83,44.14l4.49,32.15c.31,2.47,2.06,4.45,4.49,5.06.23.06.46.1.69.13,2.23.29,4.41-.67,5.7-2.57.29-.43.51-.91.65-1.41,7.88-29.7,24.6-54.55,54.2-80.58.29-.26.55-.55.77-.87,1.18-1.73,1.37-3.9.51-5.81Z"/>
  <path class="cls-1" d="M137.13,64.99c.6-.52,1.09-1.19,1.31-1.96.71-2.42-.62-4.71-2.74-5.44-22.88-7.87-35.88-13.01-47.83-22.13-3.56,11.78-8.54,23.92-14.93,36.34-.69,1.33-.68,2.92.02,4.24.7,1.33,1.99,2.23,3.48,2.43l16.89,2.22,3.97,28.42c8.01-16.21,18.62-25.88,39.83-44.14Z"/>
</svg>