<svg xmlns="http://www.w3.org/2000/svg" width="40" height="40" viewBox="0 0 24 24" fill="none">
    <path d="M11.8802 6.94195C13.2443 6.94195 14.3502 5.8361 14.3502 4.47195C14.3502 3.10781 13.2443 2.00195 11.8802 2.00195C10.516 2.00195 9.41016 3.10781 9.41016 4.47195C9.41016 5.8361 10.516 6.94195 11.8802 6.94195Z"
          stroke="currentColor" stroke-width="1.2" stroke-linecap="round" stroke-linejoin="round"></path>
    <path d="M19.2796 21.752C20.6437 21.752 21.7496 20.6462 21.7496 19.282C21.7496 17.9179 20.6437 16.812 19.2796 16.812C17.9154 16.812 16.8096 17.9179 16.8096 19.282C16.8096 20.6462 17.9154 21.752 19.2796 21.752Z"
          stroke="currentColor" stroke-width="1.2" stroke-linecap="round" stroke-linejoin="round"></path>
    <path d="M4.47 21.752C5.83414 21.752 6.94 20.6462 6.94 19.282C6.94 17.9179 5.83414 16.812 4.47 16.812C3.10586 16.812 2 17.9179 2 19.282C2 20.6462 3.10586 21.752 4.47 21.752Z"
          stroke="currentColor" stroke-width="1.2" stroke-linecap="round" stroke-linejoin="round"></path>
    <path d="M2.58023 14.8918C2.52023 14.4718 2.49023 14.0418 2.49023 13.6118C2.49023 10.2418 4.26023 7.28184 6.93023 5.63184"
          stroke="currentColor" stroke-width="1.2" stroke-linecap="round" stroke-linejoin="round"></path>
    <path d="M21.1603 14.9821C21.2303 14.5321 21.2603 14.0721 21.2603 13.6021C21.2603 10.2321 19.4903 7.27207 16.8203 5.62207"
          stroke="currentColor" stroke-width="1.2" stroke-linecap="round" stroke-linejoin="round"></path>
    <path d="M8.86035 21.6118C9.81035 21.8618 10.8204 22.0018 11.8804 22.0018C12.9404 22.0018 13.9504 21.8618 14.9004 21.6118"
          stroke="currentColor" stroke-width="1.2" stroke-linecap="round" stroke-linejoin="round"></path>
</svg>

