<svg xmlns="http://www.w3.org/2000/svg" width="40" height="40" viewBox="0 0 24 24" fill="none">
    <path d="M12.572 21.2869C11.8482 19.744 11.8673 17.4012 11.9435 16.0869C11.972 15.5631 11.7815 15.0488 11.4006 14.6869C11.0482 14.344 10.572 14.1821 10.0958 14.2202C8.87678 14.325 6.39107 14.3726 4.71488 13.4202"
          stroke="currentColor" stroke-width="1.2" stroke-linecap="round"
          stroke-linejoin="round"></path>
    <path d="M4.47651 12.7251V4.38229C4.47651 3.33467 5.33365 2.47753 6.38127 2.47753H17.8098C18.8575 2.47753 19.7146 3.33467 19.7146 4.38229V19.6204C19.7146 20.668 18.8575 21.5251 17.8098 21.5251H13.2765C12.5146 21.5251 11.7908 21.2204 11.2575 20.6871L5.3146 14.7442C4.78127 14.2109 4.47651 13.4775 4.47651 12.7251Z"
          stroke="currentColor" stroke-width="1.2" stroke-linecap="round"
          stroke-linejoin="round"></path>
</svg>

