<svg xmlns="http://www.w3.org/2000/svg" width="40" height="40" viewBox="0 0 24 24" fill="none">
    <path d="M6.21265 14.3112C6.23271 14.9735 9.17255 18.2143 10.4468 18.5855C11.1291 18.7762 12.6843 18.3247 13.4769 18.0237C13.7479 17.9233 14.8716 17.4718 16.2061 16.5588C16.8884 16.0972 18.0121 15.2343 19.1359 13.8898C20.6309 12.1039 21.3332 10.4182 21.5439 9.88644C22.5774 7.25765 22.5674 4.8797 22.4369 3.48503C22.4369 3.37466 22.4168 3.17399 22.2964 2.98335C22.0055 2.53184 21.4235 2.52181 21.3834 2.52181C20.5807 2.48168 19.4469 2.49171 18.1024 2.71245C17.0088 2.88302 15.2228 3.19406 13.2662 4.32785C12.002 5.0603 11.1893 5.84292 10.5271 6.48507C9.15248 7.8095 8.27956 9.08376 7.78792 9.89648C7.78792 9.89648 7.17587 10.9099 6.52369 12.6055C6.41332 12.8865 6.27285 13.2878 6.23271 13.8296C6.23271 13.8296 6.21265 14.0805 6.22268 14.3213L6.21265 14.3112Z"
          stroke="currentColor" stroke-width="1.2" stroke-miterlimit="10" stroke-linecap="round"></path>
    <path d="M8.92131 8.24146C7.82766 8.26152 7.01494 8.29162 6.01158 8.31169C5.60021 8.31169 5.21893 8.53243 4.99819 8.87357C4.58682 9.50568 4.18547 10.1278 3.7741 10.7599C3.29249 11.5024 3.7139 12.4957 4.58682 12.6663C5.15873 12.7766 5.73064 12.877 6.39286 12.9873"
          stroke="currentColor" stroke-width="1.2" stroke-miterlimit="10" stroke-linecap="round"></path>
    <path d="M16.8581 16.1775C16.838 17.2711 16.8079 18.0839 16.7878 19.0872C16.7878 19.4986 16.5671 19.8799 16.2259 20.1006C15.5938 20.512 14.9717 20.9133 14.3396 21.3247C13.5971 21.8063 12.6038 21.3849 12.4333 20.512C12.3229 19.9401 12.2226 19.3682 12.1122 18.7059"
          stroke="currentColor" stroke-width="1.2" stroke-miterlimit="10" stroke-linecap="round"></path>
    <path d="M7.16602 11.0806C9.39347 13.3582 11.5306 15.6258 13.7581 17.9034" stroke="currentColor" stroke-width="1.2"
          stroke-miterlimit="10" stroke-linecap="round"></path>
    <path d="M18.343 2.68262C18.343 2.68262 20.139 4.42846 22.3665 6.70608" stroke="currentColor" stroke-width="1.2"
          stroke-miterlimit="10" stroke-linecap="round"></path>
    <path d="M16.5364 10.3785C17.6281 10.3785 18.513 9.49356 18.513 8.4019C18.513 7.31025 17.6281 6.42529 16.5364 6.42529C15.4448 6.42529 14.5598 7.31025 14.5598 8.4019C14.5598 9.49356 15.4448 10.3785 16.5364 10.3785Z"
          stroke="currentColor" stroke-width="1.2" stroke-miterlimit="10" stroke-linecap="round"></path>
    <path d="M6.83492 20.9037C7.6075 20.1311 7.6075 18.8769 6.83492 18.1043C6.06233 17.3318 4.80814 17.3318 4.03555 18.1043C3.26297 18.8769 2.05894 21.6763 2.66095 22.2783C3.3031 22.9204 6.06233 21.6763 6.83492 20.9037Z"
          stroke="currentColor" stroke-width="1.2" stroke-miterlimit="10" stroke-linecap="round"></path>
</svg>

