<svg xmlns="http://www.w3.org/2000/svg" width="40" height="40" viewBox="0 0 24 24" fill="none">
    <path d="M9.7003 2.55584C11.2149 1.64308 12.5288 2.00417 13.3313 2.59596C13.6522 2.83669 13.8227 2.95705 13.913 2.95705C14.0033 2.95705 14.1738 2.83669 14.4948 2.59596C15.2872 2.00417 16.6112 1.64308 18.1257 2.55584C20.1117 3.75947 20.5631 7.73147 15.9793 11.0716C15.1066 11.7135 14.6753 12.0244 13.913 12.0244C13.1507 12.0244 12.7194 11.7035 11.8468 11.0716C7.26294 7.73147 7.7143 3.75947 9.7003 2.55584Z"
          stroke="currentColor" stroke-width="1.2" stroke-linecap="round" stroke-linejoin="round"></path>
    <path d="M6.51059 15.124C6.93186 15.124 8.08535 15.1341 8.72728 15.1541C9.41937 15.1641 10.0914 15.3547 10.7033 15.6957C10.8738 15.786 11.1446 15.9465 11.4154 16.0869C11.9069 16.3577 12.4485 16.4982 13.0102 16.5082C13.5819 16.5082 14.3142 16.4681 14.7354 16.5182C15.1567 16.5684 15.4676 16.9395 15.5479 17.3207C15.6382 17.752 15.4175 18.2234 15.0062 18.4741"
          stroke="currentColor" stroke-width="1.2" stroke-linecap="round" stroke-linejoin="round"></path>
    <path d="M6.90143 19.8985C7.00173 19.8985 7.16222 19.9185 7.36282 19.9687C7.66373 20.0489 7.87437 20.1693 7.96464 20.2295C8.33576 20.4501 9.16827 20.9316 10.3017 21.5936C10.4221 21.6738 10.5725 21.744 10.743 21.8143C11.2245 22.0048 11.6658 22.0149 11.9567 21.9948C12.2175 21.9848 12.5284 21.9447 12.8695 21.8544C13.4011 21.724 13.7822 21.5234 13.9427 21.4532C14.6248 21.1121 15.3369 20.8614 16.019 20.5304C16.7712 20.1593 18.015 19.5775 20.1514 18.6547C20.5226 18.3638 20.653 17.8724 20.4824 17.4511C20.2919 16.9897 19.7703 16.7389 19.2587 16.8693C17.9047 17.3708 16.7512 17.8322 15.4573 18.3237C14.9959 18.4942 12.9798 19.1161 11.1442 18.4641"
          stroke="currentColor" stroke-width="1.2" stroke-linecap="round" stroke-linejoin="round"></path>
    <path d="M5.50757 13.5393H4.00303C3.44907 13.5393 3 13.9884 3 14.5423V20.3098C3 20.8637 3.44907 21.3128 4.00303 21.3128H5.50757C6.06153 21.3128 6.5106 20.8637 6.5106 20.3098V14.5423C6.5106 13.9884 6.06153 13.5393 5.50757 13.5393Z"
          stroke="currentColor" stroke-width="1.2" stroke-linecap="round" stroke-linejoin="round"></path>
</svg>

