<svg xmlns="http://www.w3.org/2000/svg" width="40" height="40" viewBox="0 0 25 24" fill="none">
    <path d="M17.1136 9.59641L17.7636 9.96623C18.0736 10.1461 18.1836 10.5459 18.0036 10.8558L17.3536 11.9753C17.1736 12.2851 16.7736 12.395 16.4636 12.2151L15.6036 11.7254C15.3936 11.6054 15.1236 11.6054 14.9236 11.7454C14.6436 11.9453 14.3436 12.1052 14.0136 12.2351C13.7736 12.3351 13.6236 12.575 13.6236 12.8248V13.3646C13.6236 13.7244 13.3336 14.0143 12.9736 14.0143H11.6736C11.3136 14.0143 11.0236 13.7244 11.0236 13.3646V12.8248C11.0236 12.565 10.8736 12.3251 10.6336 12.2351C10.3136 12.1052 10.0036 11.9353 9.72358 11.7454C9.52358 11.6054 9.26358 11.6054 9.04358 11.7254L8.18358 12.2151C7.87358 12.395 7.47358 12.2851 7.29358 11.9753L6.64358 10.8558C6.46358 10.5459 6.57358 10.1461 6.88358 9.96623L7.53358 9.59641C7.77358 9.45648 7.91358 9.18661 7.86358 8.91674C7.80358 8.62689 7.77358 8.32703 7.77358 8.00719C7.77358 7.87725 7.77358 7.74732 7.79358 7.62737C7.81358 7.38749 7.67358 7.1576 7.46358 7.02767L6.89358 6.69783C6.58358 6.51792 6.47358 6.11811 6.65358 5.80826L7.30358 4.68881C7.48358 4.37896 7.88358 4.26901 8.19358 4.44893L8.57358 4.66882C8.81358 4.80875 9.11358 4.78876 9.31358 4.59885C9.70358 4.24902 10.1436 3.97916 10.6336 3.77925C10.8736 3.6793 11.0236 3.43942 11.0236 3.17955V2.6498C11.0236 2.28998 11.3136 2.00012 11.6736 2.00012H12.9736C13.3336 2.00012 13.6236 2.28998 13.6236 2.6498V3.17955C13.6236 3.43942 13.7736 3.6793 14.0136 3.77925C14.5036 3.97916 14.9536 4.24902 15.3336 4.59885C15.5336 4.77877 15.8336 4.79876 16.0736 4.66882L16.4536 4.44893C16.7636 4.26901 17.1636 4.37896 17.3436 4.68881L17.9936 5.80826C18.1736 6.11811 18.0636 6.51792 17.7536 6.69783L17.1836 7.02767C16.9736 7.14761 16.8336 7.3775 16.8536 7.62737C16.8636 7.75731 16.8736 7.87725 16.8736 8.00719C16.8736 8.31704 16.8436 8.61689 16.7836 8.91674C16.7336 9.18661 16.8736 9.45648 17.1136 9.59641Z"
          stroke="currentColor" stroke-width="1.2" stroke-linecap="round" stroke-linejoin="round"></path>
    <path d="M12.3333 9.50623C13.1617 9.50623 13.8333 8.83498 13.8333 8.00696C13.8333 7.17894 13.1617 6.50769 12.3333 6.50769C11.5048 6.50769 10.8333 7.17894 10.8333 8.00696C10.8333 8.83498 11.5048 9.50623 12.3333 9.50623Z"
          stroke="currentColor" stroke-width="1.2"></path>
    <path d="M21.3333 5.68774C21.9433 6.20749 22.3333 6.98711 22.3333 7.84669V16.6624C22.3333 18.2316 21.0633 19.501 19.4933 19.501H5.17325C3.60325 19.501 2.33325 18.2316 2.33325 16.6624V7.84669C2.33325 6.97711 2.72325 6.20749 3.33325 5.68774"
          stroke="currentColor" stroke-width="1.2" stroke-linecap="round"></path>
    <path d="M9.33325 22.0001H15.3333" stroke="currentColor" stroke-width="1.2" stroke-linecap="round"></path>
</svg>

