<svg xmlns="http://www.w3.org/2000/svg" width="40" height="40" viewBox="0 0 24 24" fill="none"
     aria-hidden="true" role="presentation" style="vertical-align:middle;">
    <path d="M14.6701 8.95012C14.6701 10.4401 13.4701 11.5901 12.0001 11.5901C10.5301 11.5901 9.33008 10.4401 9.33008 8.95012C9.33008 7.46012 10.5301 6.25012 12.0001 6.25012C13.4701 6.25012 14.6701 7.46012 14.6701 8.95012Z"
          stroke="currentColor" stroke-width="1.2" stroke-linecap="round"
          stroke-linejoin="round"></path>
    <path d="M18.0404 17.5004C18.3004 16.8004 18.1304 16.0004 17.5904 15.4604L17.0404 14.9104C16.2904 14.1604 15.2704 13.7404 14.2004 13.7404H9.79044C8.73044 13.7404 7.71044 14.1604 6.96044 14.9104L6.41044 15.4604C5.87044 16.0004 5.70044 16.8004 5.96044 17.5004"
          stroke="currentColor" stroke-width="1.2" stroke-linecap="round"
          stroke-linejoin="round"></path>
    <path d="M12 17.5001V20.5001" stroke="currentColor" stroke-width="1.2"></path>
    <path d="M9 20.5001H15" stroke="currentColor" stroke-width="1.2" stroke-linecap="round"></path>
    <path d="M19.16 3.00012H4.84C3.27151 3.00012 2 4.27163 2 5.84012V14.6601C2 16.2286 3.27151 17.5001 4.84 17.5001H19.16C20.7285 17.5001 22 16.2286 22 14.6601V5.84012C22 4.27163 20.7285 3.00012 19.16 3.00012Z"
          stroke="currentColor" stroke-width="1.2" stroke-linecap="round"></path>
</svg>