<svg xmlns="http://www.w3.org/2000/svg" width="40" height="40" viewBox="0 0 25 24" fill="none" aria-hidden="true"
     role="presentation" style="vertical-align:middle;">
    <path d="M23.0167 15.9106C23.2367 15.8006 23.2067 15.4806 22.9667 15.4206L18.3667 13.9606C17.9767 13.8606 17.6267 14.2106 17.7267 14.6006L19.1867 19.2006C19.2467 19.4406 19.5767 19.4706 19.6767 19.2506L20.4167 17.3906C20.5667 17.0706 20.8267 16.8106 21.1467 16.6606L23.0067 15.9206L23.0167 15.9106Z"
          stroke="currentColor" stroke-width="1.2" stroke-linecap="round" stroke-linejoin="round"></path>
    <path d="M20.1968 11.8909C18.9268 11.1009 17.2368 11.2609 16.1368 12.3609C15.0368 13.4609 14.8768 15.1409 15.6568 16.4009"
          stroke="currentColor" stroke-width="1.2" stroke-linecap="round" stroke-linejoin="round"></path>
    <path d="M12.6665 18.741H6.3265C4.5865 18.741 3.1665 17.331 3.1665 15.581V7.16098C3.1665 5.41098 4.5765 4.00098 6.3265 4.00098H18.9565C20.6965 4.00098 22.1165 5.41098 22.1165 7.16098V8.90098"
          stroke="currentColor" stroke-width="1.2" stroke-linecap="round" stroke-linejoin="round"></path>
</svg>