<svg xmlns="http://www.w3.org/2000/svg" width="40" height="40" viewBox="0 0 25 24" fill="none">
    <path d="M14.9677 11.6678C17.6744 8.96115 18.8017 5.70003 17.4856 4.38393C16.1695 3.06783 12.9084 4.19513 10.2017 6.90183C7.49499 9.60852 6.36769 12.8696 7.68379 14.1857C8.99989 15.5018 12.261 14.3745 14.9677 11.6678Z"
          stroke="currentColor" stroke-width="1.2" stroke-linecap="round"></path>
    <path d="M17.4856 14.1854C18.8017 12.8693 17.6744 9.60819 14.9677 6.90149C12.261 4.19479 8.99989 3.06749 7.68379 4.38359C6.36769 5.69969 7.49499 8.96081 10.2017 11.6675C12.9084 14.3742 16.1695 15.5015 17.4856 14.1854Z"
          stroke="currentColor" stroke-width="1.2" stroke-linecap="round"></path>
    <path d="M12.5842 10.1918C13.0858 10.1918 13.4925 9.78506 13.4925 9.28338C13.4925 8.7817 13.0858 8.375 12.5842 8.375C12.0825 8.375 11.6758 8.7817 11.6758 9.28338C11.6758 9.78506 12.0825 10.1918 12.5842 10.1918Z"
          stroke="currentColor" stroke-width="1.2"></path>
    <path d="M21.5 5.67871C22.11 6.19871 22.5 6.97871 22.5 7.83871V16.6587C22.5 18.2287 21.23 19.4987 19.66 19.4987H5.34C3.77 19.4987 2.5 18.2287 2.5 16.6587V7.83871C2.5 6.96871 2.89 6.19871 3.5 5.67871"
          stroke="currentColor" stroke-width="1.2" stroke-linecap="round"></path>
    <path d="M9.5 21.9985H15.5" stroke="currentColor" stroke-width="1.2" stroke-linecap="round"></path>
</svg>

