<svg xmlns="http://www.w3.org/2000/svg" width="40" height="40" viewBox="0 0 24 24" fill="none">
    <path d="M9.51916 4.33C9.13902 4.12 8.69886 4 8.22869 4C6.73815 4 5.5177 5.23 5.5177 6.74C5.5177 7.61 5.91785 8.36 6.54808 8.85"
          stroke="currentColor" stroke-width="1.2" stroke-linecap="round" stroke-linejoin="round"></path>
    <path d="M2.58655 16.2301L2.29645 15.7601C1.81627 14.9801 1.92631 13.9701 2.57655 13.3201L3.12675 12.7701C3.88703 12.0101 4.92741 11.5801 6.0078 11.5801H7.22825"
          stroke="currentColor" stroke-width="1.2" stroke-linecap="round" stroke-linejoin="round"></path>
    <path d="M14.4808 4.33C14.861 4.12 15.3011 4 15.7713 4C17.2619 4 18.4823 5.23 18.4823 6.74C18.4823 7.61 18.0822 8.36 17.4519 8.85"
          stroke="currentColor" stroke-width="1.2" stroke-linecap="round" stroke-linejoin="round"></path>
    <path d="M21.4134 16.2301L21.7035 15.7601C22.1837 14.9801 22.0737 13.9701 21.4234 13.3201L20.8732 12.7701C20.1129 12.0101 19.0726 11.5801 17.9922 11.5801H16.7717"
          stroke="currentColor" stroke-width="1.2" stroke-linecap="round" stroke-linejoin="round"></path>
    <path d="M15.0912 9.00988C15.0912 10.7399 13.7107 12.0699 12.0001 12.0699C10.2894 12.0699 8.90894 10.7399 8.90894 9.00988C8.90894 7.27988 10.2894 5.87988 12.0001 5.87988C13.7107 5.87988 15.0912 7.27988 15.0912 9.00988Z"
          stroke="currentColor" stroke-width="1.2" stroke-linecap="round" stroke-linejoin="round"></path>
    <path d="M18.4724 16.5398L17.8422 15.9098C16.9719 15.0398 15.7914 14.5498 14.551 14.5498H9.44911C8.21866 14.5498 7.03823 15.0398 6.15791 15.9098L5.52768 16.5398C4.78741 17.2798 4.65736 18.4298 5.20756 19.3198L5.53768 19.8498C5.94783 20.5098 6.6781 20.9198 7.45838 20.9198H16.5417C17.322 20.9198 18.0523 20.5198 18.4624 19.8498L18.7925 19.3198C19.3427 18.4298 19.2127 17.2798 18.4724 16.5398Z"
          stroke="currentColor" stroke-width="1.2" stroke-linecap="round" stroke-linejoin="round"></path>
</svg>

