<svg xmlns="http://www.w3.org/2000/svg" width="40" height="40" viewBox="0 0 24 24" fill="none">
    <path d="M11.96 17.0007V15.4707" stroke="currentColor" stroke-width="1.2" stroke-linecap="round"
          stroke-linejoin="round"></path>
    <path d="M11.96 8.43098V7.00098" stroke="currentColor" stroke-width="1.2" stroke-linecap="round"
          stroke-linejoin="round"></path>
    <path d="M13.9002 9.34066C13.7502 9.19066 13.5202 8.99066 13.2102 8.82066C12.9302 8.66066 12.5702 8.46066 12.0702 8.44066C11.8902 8.44066 11.3802 8.42066 10.8802 8.75066C10.7302 8.85066 10.3902 9.08066 10.2502 9.52066C10.0602 10.1107 10.3802 10.6507 10.4802 10.8007C10.7802 11.2407 11.1802 11.5207 11.8502 11.8507C12.6102 12.2207 12.8202 12.2807 13.3002 12.7007C13.4902 12.8607 13.8702 13.3207 13.8402 13.9307C13.8002 14.6607 13.1702 15.1007 13.0202 15.1907C12.6102 15.4607 12.2002 15.4707 11.9602 15.4807C11.7602 15.4807 11.1802 15.5007 10.5902 15.1407C10.0402 14.8107 9.7902 14.3407 9.7002 14.1407"
          stroke="currentColor" stroke-width="1.2" stroke-linecap="round" stroke-linejoin="round"></path>
    <path d="M20.4004 7.15129V2.32129" stroke="currentColor" stroke-width="1.2" stroke-linecap="round"
          stroke-linejoin="round"></path>
    <path d="M2 9.35098C3.17 5.11098 7.05 2.00098 11.66 2.00098C15.43 2.00098 18.71 4.08098 20.42 7.15098"
          stroke="currentColor" stroke-width="1.2" stroke-linecap="round" stroke-linejoin="round"></path>
    <path d="M3.04004 21.7111V16.8711" stroke="currentColor" stroke-width="1.2" stroke-linecap="round"
          stroke-linejoin="round"></path>
    <path d="M21.59 13.9307C20.69 18.5307 16.64 22.0007 11.78 22.0007C8.02004 22.0007 4.75004 19.9307 3.04004 16.8707"
          stroke="currentColor" stroke-width="1.2" stroke-linecap="round" stroke-linejoin="round"></path>
</svg>

