<svg xmlns="http://www.w3.org/2000/svg" width="40" height="40" viewBox="0 0 24 24" fill="none">
    <path d="M14.7999 14.301L14.6699 13.541" stroke="currentColor" stroke-width="1.2" stroke-linecap="round"
          stroke-linejoin="round"></path>
    <path d="M14.0497 10.031L13.9297 9.31104" stroke="currentColor" stroke-width="1.2" stroke-linecap="round"
          stroke-linejoin="round"></path>
    <path d="M15.0999 10.3109C15.0099 10.2509 14.8799 10.1709 14.7099 10.1109C14.5599 10.0609 14.3599 9.99089 14.1099 10.0209C14.0199 10.0309 13.7599 10.0709 13.5499 10.2809C13.4799 10.3409 13.3299 10.4909 13.2999 10.7209C13.2599 11.0309 13.4699 11.2709 13.5299 11.3409C13.7199 11.5309 13.9399 11.6409 14.3099 11.7409C14.7199 11.8609 14.8299 11.8709 15.1099 12.0409C15.2199 12.1009 15.4499 12.3009 15.4899 12.6109C15.5399 12.9809 15.2599 13.2509 15.1899 13.3109C15.0099 13.4809 14.7999 13.5209 14.6899 13.5509C14.5899 13.5709 14.2999 13.6309 13.9799 13.5009C13.6799 13.3809 13.5099 13.1709 13.4499 13.0809"
          stroke="currentColor" stroke-width="1.2" stroke-linecap="round" stroke-linejoin="round"></path>
    <path d="M15.5403 18.2012H15.5303" stroke="currentColor" stroke-width="1.2" stroke-linecap="round"
          stroke-linejoin="round"></path>
    <path d="M15.9299 18.1807H15.9199" stroke="currentColor" stroke-width="1.2" stroke-linecap="round"
          stroke-linejoin="round"></path>
    <path d="M8.4898 14.9611C8.2298 13.9911 8.1498 12.9911 8.1798 12.4811C8.3498 10.0111 9.8098 8.18106 10.5098 7.41106C11.2398 6.59106 11.9798 5.77106 13.0398 5.42106C13.2298 5.36106 13.4298 5.31106 13.6398 5.28106C13.6398 5.28106 13.6698 5.26106 13.6898 5.26106C13.7598 5.26106 13.8198 5.26106 13.8998 5.24106C14.2298 5.22106 14.5398 5.24106 14.8298 5.29106C15.4698 5.40106 16.0198 5.67106 16.4998 5.90106C16.9398 6.12106 19.7398 7.51106 20.6398 10.6811C20.8998 11.6011 21.3198 14.7711 20.2498 16.1511C20.1498 16.3211 19.9698 16.5311 19.7698 16.7411"
          stroke="currentColor" stroke-width="1.2" stroke-linecap="round" stroke-linejoin="round"></path>
    <path d="M11.6098 2.40098L15.1198 2.00098C15.2298 2.00098 15.5598 2.05098 15.7398 2.30098C15.8498 2.46098 15.8798 2.68098 15.7398 3.13098C15.5798 3.64098 15.1498 5.01098 13.9898 5.23098C13.2898 5.36098 12.7098 5.01098 12.2798 4.75098C11.4398 4.24098 11.1398 3.71098 10.9398 3.36098C10.8298 3.16098 10.8098 2.82098 10.9398 2.67098C11.0998 2.48098 11.3498 2.44098 11.6098 2.41098V2.40098Z"
          stroke="currentColor" stroke-width="1.2" stroke-linecap="round" stroke-linejoin="round"></path>
    <path d="M13.4797 5.30078H13.4697" stroke="currentColor" stroke-width="1.2" stroke-linecap="round"
          stroke-linejoin="round"></path>
    <path d="M14.8201 5.29102C14.8201 5.29102 14.8501 5.38102 14.8601 5.45102C14.8901 5.73102 14.7301 5.91102 14.6501 6.12102C14.5801 6.34102 14.5801 6.69102 14.8901 7.22102"
          stroke="currentColor" stroke-width="1.2" stroke-linecap="round" stroke-linejoin="round"></path>
    <path d="M14.2102 5.24121H14.2002" stroke="currentColor" stroke-width="1.2" stroke-linecap="round"
          stroke-linejoin="round"></path>
    <path d="M13.04 5.41113C13.08 5.57113 13.2 5.75113 13.28 6.01113C13.34 6.25113 13.35 6.54113 13.12 6.93113"
          stroke="currentColor" stroke-width="1.2" stroke-linecap="round" stroke-linejoin="round"></path>
    <path d="M15.3204 18.3812H15.3304C15.4004 18.3312 15.4704 18.2812 15.5404 18.2112C15.5404 18.2112 15.5404 18.2212 15.5504 18.2112C15.8204 17.9412 15.9504 17.5612 15.8804 17.2012C15.8004 16.8112 15.4804 16.4412 15.0504 16.3812C14.6204 16.3212 13.8704 16.3712 13.2804 16.3712C12.7004 16.3612 12.1404 16.2212 11.6404 15.9412C11.3604 15.7912 11.0804 15.6312 10.9104 15.5412C10.2904 15.1812 9.59035 14.9912 8.88035 14.9812C8.77035 14.9812 8.63035 14.9712 8.49035 14.9712C7.83035 14.9612 6.97035 14.9512 6.61035 14.9512"
          stroke="currentColor" stroke-width="1.2" stroke-linecap="round" stroke-linejoin="round"></path>
    <path d="M7 19.8407C7.1 19.8407 7.27 19.8607 7.48 19.9107C7.79 19.9907 8 20.1207 8.1 20.1807C8.48 20.4107 9.34 20.9007 10.5 21.5807C10.63 21.6607 10.78 21.7407 10.95 21.8107C11.44 22.0007 11.89 22.0207 12.19 22.0007C12.46 21.9807 12.78 21.9507 13.13 21.8607C13.68 21.7207 14.07 21.5207 14.23 21.4407C14.93 21.0907 15.66 20.8307 16.36 20.4907C17.13 20.1107 18.41 19.5207 20.6 18.5707C20.98 18.2707 21.12 17.7607 20.94 17.3407C20.74 16.8707 20.21 16.6107 19.69 16.7507C18.3 17.2707 17.12 17.7407 15.79 18.2407C15.32 18.4207 13.25 19.0507 11.36 18.3907"
          stroke="currentColor" stroke-width="1.2" stroke-linecap="round" stroke-linejoin="round"></path>
    <path d="M5.57 13.3213H4.03C3.46115 13.3213 3 13.7824 3 14.3513V20.2713C3 20.8401 3.46115 21.3013 4.03 21.3013H5.57C6.13885 21.3013 6.6 20.8401 6.6 20.2713V14.3513C6.6 13.7824 6.13885 13.3213 5.57 13.3213Z"
          stroke="currentColor" stroke-width="1.2" stroke-linecap="round" stroke-linejoin="round"></path>
</svg>

