<svg xmlns="http://www.w3.org/2000/svg" width="40" height="40" viewBox="0 0 24 24" fill="none">
    <path d="M15.0172 14.8407C16.0872 14.1907 17.0272 14.4507 17.5872 14.8707C17.8172 15.0407 17.9372 15.1307 17.9972 15.1307C18.0572 15.1307 18.1772 15.0407 18.4072 14.8707C18.9672 14.4507 19.9072 14.1907 20.9772 14.8407C22.3872 15.6907 22.7072 18.5107 19.4572 20.8807C18.8372 21.3307 18.5272 21.5607 17.9972 21.5607C17.4672 21.5607 17.1472 21.3307 16.5372 20.8807C13.2872 18.5107 13.6072 15.6907 15.0172 14.8407Z"
          stroke="currentColor" stroke-width="1.2" stroke-linecap="round" stroke-linejoin="round"></path>
    <path d="M15.597 6.16098C15.597 8.46098 13.757 10.221 11.487 10.221C9.21695 10.221 7.37695 8.45098 7.37695 6.16098C7.37695 3.87098 9.21695 2.00098 11.487 2.00098C13.757 2.00098 15.597 3.86098 15.597 6.16098Z"
          stroke="currentColor" stroke-width="1.2" stroke-linecap="round" stroke-linejoin="round"></path>
    <path d="M12.0066 13.521H8.08657C6.44657 13.521 4.87657 14.171 3.71657 15.331L2.87657 16.171C1.89657 17.151 1.71657 18.691 2.44657 19.871L2.88657 20.581C3.43657 21.461 4.39657 22.001 5.43657 22.001H10.9966"
          stroke="currentColor" stroke-width="1.2" stroke-linecap="round" stroke-linejoin="round"></path>
</svg>

