<svg xmlns="http://www.w3.org/2000/svg" width="40" height="40" viewBox="0 0 24 24" fill="none">
    <path d="M11.835 18.7534V17.6934" stroke="currentColor" stroke-width="1.2" stroke-linecap="round"
          stroke-linejoin="round"></path>
    <path d="M11.835 12.8337V11.8438" stroke="currentColor" stroke-width="1.2" stroke-linecap="round"
          stroke-linejoin="round"></path>
    <path d="M13.1746 13.4634C13.0746 13.3634 12.9146 13.2234 12.6946 13.1034C12.5046 12.9934 12.2546 12.8534 11.9046 12.8334C11.7746 12.8334 11.4246 12.8134 11.0846 13.0434C10.9846 13.1134 10.7446 13.2734 10.6446 13.5734C10.5146 13.9834 10.7346 14.3534 10.8046 14.4534C11.0146 14.7534 11.2846 14.9534 11.7546 15.1734C12.2846 15.4334 12.4246 15.4734 12.7546 15.7634C12.8846 15.8734 13.1446 16.1934 13.1246 16.6134C13.0946 17.1134 12.6646 17.4234 12.5646 17.4834C12.2746 17.6634 11.9946 17.6834 11.8346 17.6834C11.6946 17.6834 11.2946 17.7034 10.8846 17.4534C10.5046 17.2234 10.3346 16.8934 10.2646 16.7634"
          stroke="currentColor" stroke-width="1.2" stroke-linecap="round" stroke-linejoin="round"></path>
    <path d="M12.3946 6.3435C10.4646 6.2935 9.08465 7.3735 7.69465 8.4635C6.57465 9.3335 4.19465 11.4535 3.37465 14.7235C3.06465 15.9435 2.59465 17.8235 3.66465 19.5235C4.13465 20.5235 5.44465 21.4635 6.48465 21.6135C9.72465 22.0535 12.9946 22.0235 16.2646 21.9635C17.4246 21.9935 18.4046 21.5735 19.1246 20.7635C20.8946 19.1335 20.6346 16.5335 20.5046 15.2335C20.0546 10.7735 16.6346 8.2435 16.0846 7.8535C15.1746 7.2035 14.0246 6.3835 12.3946 6.3335V6.3435Z"
          stroke="currentColor" stroke-width="1.2" stroke-linecap="round" stroke-linejoin="round"></path>
    <path d="M10.3647 2.01348L15.1747 2.30348C15.3247 2.34348 15.7647 2.47348 15.9347 2.85348C16.0447 3.09348 16.0347 3.40348 15.7447 3.96348C15.4047 4.61348 14.5047 6.34348 12.8947 6.36348C11.9247 6.37348 11.2247 5.76348 10.7147 5.31348C9.70471 4.43348 9.42471 3.64348 9.25471 3.13348C9.15471 2.84348 9.20471 2.37348 9.41471 2.20348C9.68471 1.99348 10.0247 1.98348 10.3747 2.01348H10.3647Z"
          stroke="currentColor" stroke-width="1.2" stroke-linecap="round" stroke-linejoin="round"></path>
    <path d="M12.1955 6.34375H12.1855" stroke="currentColor" stroke-width="1.2" stroke-linecap="round"
          stroke-linejoin="round"></path>
    <path d="M13.985 6.65332C13.995 6.71332 13.995 6.78332 13.995 6.87332C13.965 7.25332 13.715 7.45332 13.555 7.72332C13.405 8.00332 13.325 8.46332 13.615 9.25332"
          stroke="currentColor" stroke-width="1.2" stroke-linecap="round" stroke-linejoin="round"></path>
    <path d="M13.1848 6.43359H13.1748" stroke="currentColor" stroke-width="1.2" stroke-linecap="round"
          stroke-linejoin="round"></path>
    <path d="M11.5649 6.39355C11.5749 6.61355 11.6949 6.89355 11.7349 7.25355C11.7649 7.59355 11.7049 7.98355 11.2949 8.45355"
          stroke="currentColor" stroke-width="1.2" stroke-linecap="round" stroke-linejoin="round"></path>
</svg>

