<svg xmlns="http://www.w3.org/2000/svg" width="40" height="40" viewBox="0 0 25 24" fill="none">
    <path d="M12.5 17.002V6.00195" stroke="currentColor" stroke-width="1.2" stroke-linecap="round"
          stroke-linejoin="round"></path>
    <path d="M15 19.002V10.182C15 9.77195 15.25 9.40195 15.63 9.25195L17.5 8.50195" stroke="currentColor"
          stroke-width="1.2" stroke-linecap="round" stroke-linejoin="round"></path>
    <path d="M17.5 21.0017V15.6217C17.5 15.2417 17.71 14.8917 18.05 14.7317L19.5 14.0117" stroke="currentColor"
          stroke-width="1.2" stroke-linecap="round" stroke-linejoin="round"></path>
    <path d="M19.25 9.75195C20.0784 9.75195 20.75 9.08038 20.75 8.25195C20.75 7.42353 20.0784 6.75195 19.25 6.75195C18.4216 6.75195 17.75 7.42353 17.75 8.25195C17.75 9.08038 18.4216 9.75195 19.25 9.75195Z"
          stroke="currentColor" stroke-width="1.2" stroke-miterlimit="10"></path>
    <path d="M12.5 6.00195C13.3284 6.00195 14 5.33038 14 4.50195C14 3.67353 13.3284 3.00195 12.5 3.00195C11.6716 3.00195 11 3.67353 11 4.50195C11 5.33038 11.6716 6.00195 12.5 6.00195Z"
          stroke="currentColor" stroke-width="1.2" stroke-miterlimit="10"></path>
    <path d="M21 15.252C21.8284 15.252 22.5 14.5804 22.5 13.752C22.5 12.9235 21.8284 12.252 21 12.252C20.1716 12.252 19.5 12.9235 19.5 13.752C19.5 14.5804 20.1716 15.252 21 15.252Z"
          stroke="currentColor" stroke-width="1.2" stroke-miterlimit="10"></path>
    <path d="M10 19.002V10.182C10 9.77195 9.75 9.40195 9.37 9.25195L7.5 8.50195" stroke="currentColor"
          stroke-width="1.2" stroke-linecap="round" stroke-linejoin="round"></path>
    <path d="M7.5 21.0017V15.6217C7.5 15.2417 7.29 14.8917 6.95 14.7317L5.5 14.0117" stroke="currentColor"
          stroke-width="1.2" stroke-linecap="round" stroke-linejoin="round"></path>
    <path d="M5.75 9.75195C6.57843 9.75195 7.25 9.08038 7.25 8.25195C7.25 7.42353 6.57843 6.75195 5.75 6.75195C4.92157 6.75195 4.25 7.42353 4.25 8.25195C4.25 9.08038 4.92157 9.75195 5.75 9.75195Z"
          stroke="currentColor" stroke-width="1.2" stroke-miterlimit="10"></path>
    <path d="M4 15.252C4.82843 15.252 5.5 14.5804 5.5 13.752C5.5 12.9235 4.82843 12.252 4 12.252C3.17157 12.252 2.5 12.9235 2.5 13.752C2.5 14.5804 3.17157 15.252 4 15.252Z"
          stroke="currentColor" stroke-width="1.2" stroke-miterlimit="10"></path>
</svg>

